<svg width="62" height="62" viewBox="0 0 62 62" fill="none" xmlns="http://www.w3.org/2000/svg">
<g clip-path="url(#clip0_83_24)">
<mask id="mask0_83_24" style="mask-type:luminance" maskUnits="userSpaceOnUse" x="0" y="0" width="62" height="62">
<path d="M47 0H15C6.71573 0 0 6.71573 0 15V47C0 55.2843 6.71573 62 15 62H47C55.2843 62 62 55.2843 62 47V15C62 6.71573 55.2843 0 47 0Z" fill="white"/>
</mask>
<g mask="url(#mask0_83_24)">
<path d="M47 0H15C6.71573 0 0 6.71573 0 15V47C0 55.2843 6.71573 62 15 62H47C55.2843 62 62 55.2843 62 47V15C62 6.71573 55.2843 0 47 0Z" fill="white"/>
</g>
<g filter="url(#filter0_d_83_24)">
<path d="M5 49.6894C5 43.1932 6.77832 40.948 7.66748 40.6374H12.4022M52.3477 49.6894C52.3477 49.6894 55.0152 47.3066 58.7496 44.4312C62.4841 41.5559 57.1936 40.7039 54.0816 40.6374H31.8748M12.4022 40.6374C12.2244 30.831 14.1761 11.591 23.4056 13.0819C32.635 14.5728 32.8973 32.0734 31.8748 40.6374M12.4022 40.6374H31.8748" stroke="black" shape-rendering="crispEdges"/>
</g>
<g filter="url(#filter1_d_83_24)">
<path d="M18.5171 21.7954C20.618 22.4743 25.1042 23.4247 26.2412 21.7954M18.5171 23.6866C20.618 24.3655 25.1042 25.3159 26.2412 23.6866M18.5171 19.7587C20.618 20.4376 25.1042 21.388 26.2412 19.7587" stroke="black"/>
</g>
</g>
<defs>
<filter id="filter0_d_83_24" x="0.5" y="12.4998" width="64.0342" height="45.5624" filterUnits="userSpaceOnUse" color-interpolation-filters="sRGB">
<feFlood flood-opacity="0" result="BackgroundImageFix"/>
<feColorMatrix in="SourceAlpha" type="matrix" values="0 0 0 0 0 0 0 0 0 0 0 0 0 0 0 0 0 0 127 0" result="hardAlpha"/>
<feOffset dy="4"/>
<feGaussianBlur stdDeviation="2"/>
<feComposite in2="hardAlpha" operator="out"/>
<feColorMatrix type="matrix" values="0 0 0 0 0 0 0 0 0 0 0 0 0 0 0 0 0 0 0.25 0"/>
<feBlend mode="normal" in2="BackgroundImageFix" result="effect1_dropShadow_83_24"/>
<feBlend mode="normal" in="SourceGraphic" in2="effect1_dropShadow_83_24" result="shape"/>
</filter>
<filter id="filter1_d_83_24" x="14.3633" y="19.2829" width="16.2878" height="13.8033" filterUnits="userSpaceOnUse" color-interpolation-filters="sRGB">
<feFlood flood-opacity="0" result="BackgroundImageFix"/>
<feColorMatrix in="SourceAlpha" type="matrix" values="0 0 0 0 0 0 0 0 0 0 0 0 0 0 0 0 0 0 127 0" result="hardAlpha"/>
<feOffset dy="4"/>
<feGaussianBlur stdDeviation="2"/>
<feComposite in2="hardAlpha" operator="out"/>
<feColorMatrix type="matrix" values="0 0 0 0 0 0 0 0 0 0 0 0 0 0 0 0 0 0 0.25 0"/>
<feBlend mode="normal" in2="BackgroundImageFix" result="effect1_dropShadow_83_24"/>
<feBlend mode="normal" in="SourceGraphic" in2="effect1_dropShadow_83_24" result="shape"/>
</filter>
<clipPath id="clip0_83_24">
<rect width="62" height="62" fill="white"/>
</clipPath>
</defs>
</svg>
