<svg width="1728" height="1117" viewBox="0 0 1728 1117" fill="none" xmlns="http://www.w3.org/2000/svg">
<rect width="1728" height="1117" fill="white"/>
<path d="M831.968 344V290.144H814.976V284.096H856.448V290.144H838.784V344H831.968ZM864.8 284.192H871.712H872.672V284.864C872.288 285.248 872.032 285.664 871.904 286.112C871.84 286.56 871.808 287.328 871.808 288.416V309.728H895.232V284.192H902.144H903.104V284.864C902.72 285.248 902.464 285.664 902.336 286.112C902.272 286.56 902.24 287.328 902.24 288.416V344H895.136V315.488H871.808V344H864.8V284.192ZM913.664 344V284.096H950.336V290.048H920V309.728H945.056V315.872H920V338.048H950.048V344H913.664ZM827.936 415.048L823.232 420.232V445H816.032V385.192H823.136H824.096V385.864C823.712 386.248 823.456 386.664 823.328 387.112C823.264 387.56 823.232 388.328 823.232 389.416V412.744L848.192 384.712C848.576 384.776 848.96 384.84 849.344 384.904C849.728 384.968 850.112 385.032 850.496 385.096C850.944 385.096 851.392 385.128 851.84 385.192C852.288 385.192 852.736 385.192 853.184 385.192H855.68L833.024 411.016L857.216 445L848.576 445.384L827.936 415.048ZM894.272 427.528H872.576L873.92 422.344H892.736L894.272 427.528ZM883.904 399.496L868.16 445H861.536L883.616 384.136H884.384L906.464 445H899.552L883.904 399.496ZM915.776 445V439.336H927.584V390.856H916.448V385.192H946.112V390.856H934.304V439.432H946.688V445H915.776ZM962.336 385.192H969.248H970.208V385.864C969.824 386.248 969.568 386.664 969.44 387.112C969.376 387.56 969.344 388.328 969.344 389.416V439.24H998.144V445H962.336V385.192ZM1038.27 427.528H1016.58L1017.92 422.344H1036.74L1038.27 427.528ZM1027.9 399.496L1012.16 445H1005.54L1027.62 384.136H1028.38L1050.46 445H1043.55L1027.9 399.496ZM1075.71 445.96C1071.81 445.96 1068.29 445.32 1065.15 444.04C1062.08 442.76 1059.36 440.872 1056.99 438.376L1060.45 432.328L1060.83 431.464L1061.5 431.848C1061.63 432.296 1061.79 432.808 1061.98 433.384C1062.18 433.896 1062.62 434.536 1063.33 435.304C1064.99 436.712 1066.91 437.832 1069.09 438.664C1071.33 439.496 1073.86 439.912 1076.67 439.912C1078.46 439.912 1080.1 439.656 1081.57 439.144C1083.1 438.568 1084.42 437.832 1085.5 436.936C1086.66 435.976 1087.52 434.888 1088.1 433.672C1088.74 432.392 1089.06 431.048 1089.06 429.64C1089.06 428.552 1088.93 427.56 1088.67 426.664C1088.48 425.768 1088.06 424.968 1087.42 424.264C1086.85 423.496 1086.05 422.76 1085.02 422.056C1084 421.288 1082.69 420.488 1081.09 419.656C1079.49 418.824 1077.57 417.928 1075.33 416.968C1071.17 415.368 1067.87 413.64 1065.44 411.784C1063.07 409.864 1061.38 407.848 1060.35 405.736C1059.39 403.624 1058.91 401.448 1058.91 399.208C1058.91 396.264 1059.65 393.704 1061.12 391.528C1062.59 389.288 1064.67 387.56 1067.36 386.344C1070.11 385.064 1073.38 384.424 1077.15 384.424C1079.33 384.424 1081.41 384.744 1083.39 385.384C1085.44 385.96 1087.33 386.792 1089.06 387.88C1090.85 388.968 1092.42 390.312 1093.76 391.912L1090.02 396.904L1089.44 397.672L1088.86 397.288C1088.8 396.776 1088.67 396.264 1088.48 395.752C1088.29 395.24 1087.84 394.6 1087.14 393.832C1085.6 392.36 1083.97 391.368 1082.24 390.856C1080.51 390.28 1078.46 389.992 1076.1 389.992C1074.5 389.992 1073.06 390.216 1071.78 390.664C1070.56 391.112 1069.5 391.752 1068.61 392.584C1067.71 393.416 1067.01 394.376 1066.5 395.464C1066.05 396.488 1065.82 397.576 1065.82 398.728C1065.82 399.816 1065.95 400.808 1066.21 401.704C1066.46 402.6 1066.91 403.464 1067.55 404.296C1068.19 405.128 1069.06 405.96 1070.14 406.792C1071.3 407.624 1072.7 408.456 1074.37 409.288C1076.1 410.12 1078.18 411.016 1080.61 411.976C1083.55 413.192 1085.98 414.408 1087.9 415.624C1089.89 416.776 1091.42 418.024 1092.51 419.368C1093.66 420.648 1094.46 422.056 1094.91 423.592C1095.42 425.128 1095.68 426.824 1095.68 428.68C1095.68 431.432 1094.98 434.152 1093.57 436.84C1092.22 439.464 1090.08 441.64 1087.14 443.368C1084.19 445.096 1080.38 445.96 1075.71 445.96ZM1104.8 385.192H1111.71H1112.67V385.864C1112.29 386.248 1112.03 386.664 1111.9 387.112C1111.84 387.56 1111.81 388.328 1111.81 389.416V410.728H1135.23V385.192H1142.14H1143.1V385.864C1142.72 386.248 1142.46 386.664 1142.34 387.112C1142.27 387.56 1142.24 388.328 1142.24 389.416V445H1135.14V416.488H1111.81V445H1104.8V385.192ZM819.488 546V486.096H853.952V491.952H826.208V510.768H848.576V516.624H826.208V546H819.488ZM884 547.056C879.456 547.056 875.584 545.872 872.384 543.504C869.184 541.136 866.752 537.68 865.088 533.136C863.424 528.528 862.592 522.96 862.592 516.432C862.592 510.096 863.424 504.656 865.088 500.112C866.752 495.504 869.184 491.984 872.384 489.552C875.584 487.056 879.456 485.808 884 485.808C888.608 485.808 892.48 487.056 895.616 489.552C898.816 491.984 901.248 495.504 902.912 500.112C904.576 504.656 905.408 510.096 905.408 516.432C905.408 522.96 904.576 528.528 902.912 533.136C901.248 537.68 898.816 541.136 895.616 543.504C892.48 545.872 888.608 547.056 884 547.056ZM884 541.2C887.072 541.2 889.664 540.24 891.776 538.32C893.952 536.4 895.616 533.616 896.768 529.968C897.92 526.256 898.496 521.744 898.496 516.432C898.496 511.376 897.92 507.024 896.768 503.376C895.616 499.664 893.952 496.784 891.776 494.736C889.664 492.688 887.072 491.664 884 491.664C880.992 491.664 878.4 492.688 876.224 494.736C874.048 496.784 872.384 499.664 871.232 503.376C870.08 507.024 869.504 511.376 869.504 516.432C869.504 521.744 870.08 526.256 871.232 529.968C872.384 533.616 874.048 536.4 876.224 538.32C878.4 540.24 880.992 541.2 884 541.2ZM932.096 547.056C925.696 547.056 920.864 545.168 917.6 541.392C914.4 537.552 912.8 532.208 912.8 525.36V486.192H919.328H920.288V486.864C919.904 487.248 919.648 487.664 919.52 488.112C919.456 488.56 919.424 489.328 919.424 490.416V525.456C919.424 530.32 920.352 534.192 922.208 537.072C924.128 539.952 927.456 541.392 932.192 541.392C936.992 541.392 940.352 539.952 942.272 537.072C944.192 534.192 945.152 530.224 945.152 525.168V486.192H951.584V525.072C951.584 530.128 950.784 534.288 949.184 537.552C947.584 540.752 945.312 543.152 942.368 544.752C939.488 546.288 936.064 547.056 932.096 547.056ZM960.8 486.192H967.328L992.48 530.544V486.192H998.816H999.776V486.864C999.392 487.248 999.136 487.664 999.008 488.112C998.944 488.56 998.912 489.328 998.912 490.416V546H993.632L967.232 498.96V546H960.8V486.192ZM1009.18 546.096V486.192H1023.1C1026.56 486.192 1029.47 486.512 1031.84 487.152C1034.21 487.792 1036.22 488.72 1037.89 489.936C1039.55 491.088 1041.02 492.56 1042.3 494.352C1043.65 496.144 1044.74 498.16 1045.57 500.4C1046.46 502.64 1047.1 505.104 1047.49 507.792C1047.94 510.416 1048.16 513.296 1048.16 516.432C1047.97 521.04 1047.36 525.168 1046.34 528.816C1045.31 532.464 1043.78 535.568 1041.73 538.128C1039.68 540.688 1037.02 542.672 1033.76 544.08C1030.56 545.424 1026.62 546.096 1021.95 546.096H1009.18ZM1015.52 540.816H1021.66C1026.27 540.816 1030.02 539.888 1032.9 538.032C1035.84 536.176 1038.02 533.456 1039.42 529.872C1040.83 526.288 1041.5 521.936 1041.44 516.816C1041.44 511.568 1040.8 507.088 1039.52 503.376C1038.24 499.664 1036.22 496.816 1033.47 494.832C1030.78 492.848 1027.2 491.856 1022.72 491.856H1015.52V540.816ZM1086.27 528.528H1064.58L1065.92 523.344H1084.74L1086.27 528.528ZM1075.9 500.496L1060.16 546H1053.54L1075.62 485.136H1076.38L1098.46 546H1091.55L1075.9 500.496ZM1119.97 546V492.144H1102.98V486.096H1144.45V492.144H1126.78V546H1119.97ZM1155.78 546V540.336H1167.58V491.856H1156.45V486.192H1186.11V491.856H1174.3V540.432H1186.69V546H1155.78ZM1220 547.056C1215.46 547.056 1211.58 545.872 1208.38 543.504C1205.18 541.136 1202.75 537.68 1201.09 533.136C1199.42 528.528 1198.59 522.96 1198.59 516.432C1198.59 510.096 1199.42 504.656 1201.09 500.112C1202.75 495.504 1205.18 491.984 1208.38 489.552C1211.58 487.056 1215.46 485.808 1220 485.808C1224.61 485.808 1228.48 487.056 1231.62 489.552C1234.82 491.984 1237.25 495.504 1238.91 500.112C1240.58 504.656 1241.41 510.096 1241.41 516.432C1241.41 522.96 1240.58 528.528 1238.91 533.136C1237.25 537.68 1234.82 541.136 1231.62 543.504C1228.48 545.872 1224.61 547.056 1220 547.056ZM1220 541.2C1223.07 541.2 1225.66 540.24 1227.78 538.32C1229.95 536.4 1231.62 533.616 1232.77 529.968C1233.92 526.256 1234.5 521.744 1234.5 516.432C1234.5 511.376 1233.92 507.024 1232.77 503.376C1231.62 499.664 1229.95 496.784 1227.78 494.736C1225.66 492.688 1223.07 491.664 1220 491.664C1216.99 491.664 1214.4 492.688 1212.22 494.736C1210.05 496.784 1208.38 499.664 1207.23 503.376C1206.08 507.024 1205.5 511.376 1205.5 516.432C1205.5 521.744 1206.08 526.256 1207.23 529.968C1208.38 533.616 1210.05 536.4 1212.22 538.32C1214.4 540.24 1216.99 541.2 1220 541.2ZM1248.8 486.192H1255.33L1280.48 530.544V486.192H1286.82H1287.78V486.864C1287.39 487.248 1287.14 487.664 1287.01 488.112C1286.94 488.56 1286.91 489.328 1286.91 490.416V546H1281.63L1255.23 498.96V546H1248.8V486.192Z" fill="black"/>
<path d="M377 557.615C377 508.815 390.333 491.948 397 489.615H432.5M732 557.615C732 557.615 752 539.715 780 518.115C808 496.515 768.333 490.115 745 489.615H578.5M432.5 489.615C431.167 415.948 445.8 271.415 515 282.615C584.2 293.815 586.167 425.282 578.5 489.615M432.5 489.615H578.5" stroke="black"/>
<path d="M476.5 358.5C493.5 363.167 529.8 369.7 539 358.5M476.5 371.5C493.5 376.167 529.8 382.7 539 371.5M476.5 344.5C493.5 349.167 529.8 355.7 539 344.5" stroke="black"/>
</svg>
