<svg width="216" height="65" viewBox="0 0 216 65" fill="none" xmlns="http://www.w3.org/2000/svg">
<g filter="url(#filter0_d_11_6)">
<path d="M105.617 14V5.585H102.962V4.64H109.442V5.585H106.682V14H105.617ZM110.747 4.655H111.827H111.977V4.76C111.917 4.82 111.877 4.885 111.857 4.955C111.847 5.025 111.842 5.145 111.842 5.315V8.645H115.502V4.655H116.582H116.732V4.76C116.672 4.82 116.632 4.885 116.612 4.955C116.602 5.025 116.597 5.145 116.597 5.315V14H115.487V9.545H111.842V14H110.747V4.655ZM118.382 14V4.64H124.112V5.57H119.372V8.645H123.287V9.605H119.372V13.07H124.067V14H118.382ZM104.987 25.32L104.252 26.13V30H103.127V20.655H104.237H104.387V20.76C104.327 20.82 104.287 20.885 104.267 20.955C104.257 21.025 104.252 21.145 104.252 21.315V24.96L108.152 20.58C108.212 20.59 108.272 20.6 108.332 20.61C108.392 20.62 108.452 20.63 108.512 20.64C108.582 20.64 108.652 20.645 108.722 20.655C108.792 20.655 108.862 20.655 108.932 20.655H109.322L105.782 24.69L109.562 30L108.212 30.06L104.987 25.32ZM115.352 27.27H111.962L112.172 26.46H115.112L115.352 27.27ZM113.732 22.89L111.272 30H110.237L113.687 20.49H113.807L117.257 30H116.177L113.732 22.89ZM118.712 30V29.115H120.557V21.54H118.817V20.655H123.452V21.54H121.607V29.13H123.542V30H118.712ZM125.987 20.655H127.067H127.217V20.76C127.157 20.82 127.117 20.885 127.097 20.955C127.087 21.025 127.082 21.145 127.082 21.315V29.1H131.582V30H125.987V20.655ZM137.852 27.27H134.462L134.672 26.46H137.612L137.852 27.27ZM136.232 22.89L133.772 30H132.737L136.187 20.49H136.307L139.757 30H138.677L136.232 22.89ZM143.702 30.15C143.092 30.15 142.542 30.05 142.052 29.85C141.572 29.65 141.147 29.355 140.777 28.965L141.317 28.02L141.377 27.885L141.482 27.945C141.502 28.015 141.527 28.095 141.557 28.185C141.587 28.265 141.657 28.365 141.767 28.485C142.027 28.705 142.327 28.88 142.667 29.01C143.017 29.14 143.412 29.205 143.852 29.205C144.132 29.205 144.387 29.165 144.617 29.085C144.857 28.995 145.062 28.88 145.232 28.74C145.412 28.59 145.547 28.42 145.637 28.23C145.737 28.03 145.787 27.82 145.787 27.6C145.787 27.43 145.767 27.275 145.727 27.135C145.697 26.995 145.632 26.87 145.532 26.76C145.442 26.64 145.317 26.525 145.157 26.415C144.997 26.295 144.792 26.17 144.542 26.04C144.292 25.91 143.992 25.77 143.642 25.62C142.992 25.37 142.477 25.1 142.097 24.81C141.727 24.51 141.462 24.195 141.302 23.865C141.152 23.535 141.077 23.195 141.077 22.845C141.077 22.385 141.192 21.985 141.422 21.645C141.652 21.295 141.977 21.025 142.397 20.835C142.827 20.635 143.337 20.535 143.927 20.535C144.267 20.535 144.592 20.585 144.902 20.685C145.222 20.775 145.517 20.905 145.787 21.075C146.067 21.245 146.312 21.455 146.522 21.705L145.937 22.485L145.847 22.605L145.757 22.545C145.747 22.465 145.727 22.385 145.697 22.305C145.667 22.225 145.597 22.125 145.487 22.005C145.247 21.775 144.992 21.62 144.722 21.54C144.452 21.45 144.132 21.405 143.762 21.405C143.512 21.405 143.287 21.44 143.087 21.51C142.897 21.58 142.732 21.68 142.592 21.81C142.452 21.94 142.342 22.09 142.262 22.26C142.192 22.42 142.157 22.59 142.157 22.77C142.157 22.94 142.177 23.095 142.217 23.235C142.257 23.375 142.327 23.51 142.427 23.64C142.527 23.77 142.662 23.9 142.832 24.03C143.012 24.16 143.232 24.29 143.492 24.42C143.762 24.55 144.087 24.69 144.467 24.84C144.927 25.03 145.307 25.22 145.607 25.41C145.917 25.59 146.157 25.785 146.327 25.995C146.507 26.195 146.632 26.415 146.702 26.655C146.782 26.895 146.822 27.16 146.822 27.45C146.822 27.88 146.712 28.305 146.492 28.725C146.282 29.135 145.947 29.475 145.487 29.745C145.027 30.015 144.432 30.15 143.702 30.15ZM148.247 20.655H149.327H149.477V20.76C149.417 20.82 149.377 20.885 149.357 20.955C149.347 21.025 149.342 21.145 149.342 21.315V24.645H153.002V20.655H154.082H154.232V20.76C154.172 20.82 154.132 20.885 154.112 20.955C154.102 21.025 154.097 21.145 154.097 21.315V30H152.987V25.545H149.342V30H148.247V20.655ZM103.667 46V36.64H109.052V37.555H104.717V40.495H108.212V41.41H104.717V46H103.667ZM113.747 46.165C113.037 46.165 112.432 45.98 111.932 45.61C111.432 45.24 111.052 44.7 110.792 43.99C110.532 43.27 110.402 42.4 110.402 41.38C110.402 40.39 110.532 39.54 110.792 38.83C111.052 38.11 111.432 37.56 111.932 37.18C112.432 36.79 113.037 36.595 113.747 36.595C114.467 36.595 115.072 36.79 115.562 37.18C116.062 37.56 116.442 38.11 116.702 38.83C116.962 39.54 117.092 40.39 117.092 41.38C117.092 42.4 116.962 43.27 116.702 43.99C116.442 44.7 116.062 45.24 115.562 45.61C115.072 45.98 114.467 46.165 113.747 46.165ZM113.747 45.25C114.227 45.25 114.632 45.1 114.962 44.8C115.302 44.5 115.562 44.065 115.742 43.495C115.922 42.915 116.012 42.21 116.012 41.38C116.012 40.59 115.922 39.91 115.742 39.34C115.562 38.76 115.302 38.31 114.962 37.99C114.632 37.67 114.227 37.51 113.747 37.51C113.277 37.51 112.872 37.67 112.532 37.99C112.192 38.31 111.932 38.76 111.752 39.34C111.572 39.91 111.482 40.59 111.482 41.38C111.482 42.21 111.572 42.915 111.752 43.495C111.932 44.065 112.192 44.5 112.532 44.8C112.872 45.1 113.277 45.25 113.747 45.25ZM121.262 46.165C120.262 46.165 119.507 45.87 118.997 45.28C118.497 44.68 118.247 43.845 118.247 42.775V36.655H119.267H119.417V36.76C119.357 36.82 119.317 36.885 119.297 36.955C119.287 37.025 119.282 37.145 119.282 37.315V42.79C119.282 43.55 119.427 44.155 119.717 44.605C120.017 45.055 120.537 45.28 121.277 45.28C122.027 45.28 122.552 45.055 122.852 44.605C123.152 44.155 123.302 43.535 123.302 42.745V36.655H124.307V42.73C124.307 43.52 124.182 44.17 123.932 44.68C123.682 45.18 123.327 45.555 122.867 45.805C122.417 46.045 121.882 46.165 121.262 46.165ZM125.747 36.655H126.767L130.697 43.585V36.655H131.687H131.837V36.76C131.777 36.82 131.737 36.885 131.717 36.955C131.707 37.025 131.702 37.145 131.702 37.315V46H130.877L126.752 38.65V46H125.747V36.655ZM133.307 46.015V36.655H135.482C136.022 36.655 136.477 36.705 136.847 36.805C137.217 36.905 137.532 37.05 137.792 37.24C138.052 37.42 138.282 37.65 138.482 37.93C138.692 38.21 138.862 38.525 138.992 38.875C139.132 39.225 139.232 39.61 139.292 40.03C139.362 40.44 139.397 40.89 139.397 41.38C139.367 42.1 139.272 42.745 139.112 43.315C138.952 43.885 138.712 44.37 138.392 44.77C138.072 45.17 137.657 45.48 137.147 45.7C136.647 45.91 136.032 46.015 135.302 46.015H133.307ZM134.297 45.19H135.257C135.977 45.19 136.562 45.045 137.012 44.755C137.472 44.465 137.812 44.04 138.032 43.48C138.252 42.92 138.357 42.24 138.347 41.44C138.347 40.62 138.247 39.92 138.047 39.34C137.847 38.76 137.532 38.315 137.102 38.005C136.682 37.695 136.122 37.54 135.422 37.54H134.297V45.19ZM145.352 43.27H141.962L142.172 42.46H145.112L145.352 43.27ZM143.732 38.89L141.272 46H140.237L143.687 36.49H143.807L147.257 46H146.177L143.732 38.89ZM150.617 46V37.585H147.962V36.64H154.442V37.585H151.682V46H150.617ZM156.212 46V45.115H158.057V37.54H156.317V36.655H160.952V37.54H159.107V45.13H161.042V46H156.212ZM166.247 46.165C165.537 46.165 164.932 45.98 164.432 45.61C163.932 45.24 163.552 44.7 163.292 43.99C163.032 43.27 162.902 42.4 162.902 41.38C162.902 40.39 163.032 39.54 163.292 38.83C163.552 38.11 163.932 37.56 164.432 37.18C164.932 36.79 165.537 36.595 166.247 36.595C166.967 36.595 167.572 36.79 168.062 37.18C168.562 37.56 168.942 38.11 169.202 38.83C169.462 39.54 169.592 40.39 169.592 41.38C169.592 42.4 169.462 43.27 169.202 43.99C168.942 44.7 168.562 45.24 168.062 45.61C167.572 45.98 166.967 46.165 166.247 46.165ZM166.247 45.25C166.727 45.25 167.132 45.1 167.462 44.8C167.802 44.5 168.062 44.065 168.242 43.495C168.422 42.915 168.512 42.21 168.512 41.38C168.512 40.59 168.422 39.91 168.242 39.34C168.062 38.76 167.802 38.31 167.462 37.99C167.132 37.67 166.727 37.51 166.247 37.51C165.777 37.51 165.372 37.67 165.032 37.99C164.692 38.31 164.432 38.76 164.252 39.34C164.072 39.91 163.982 40.59 163.982 41.38C163.982 42.21 164.072 42.915 164.252 43.495C164.432 44.065 164.692 44.5 165.032 44.8C165.372 45.1 165.777 45.25 166.247 45.25ZM170.747 36.655H171.767L175.697 43.585V36.655H176.687H176.837V36.76C176.777 36.82 176.737 36.885 176.717 36.955C176.707 37.025 176.702 37.145 176.702 37.315V46H175.877L171.752 38.65V46H170.747V36.655Z" fill="white"/>
</g>
<g filter="url(#filter1_d_11_6)">
<path d="M5 56.1172C5 46.3265 7.6802 42.9426 9.0203 42.4744H16.1563M76.3602 56.1172C76.3602 56.1172 80.3805 52.526 86.009 48.1924C91.6374 43.8588 83.6638 42.5747 78.9734 42.4744H45.5045M16.1563 42.4744C15.8883 27.6947 18.8298 -1.30297 32.74 0.944082C46.6503 3.19113 47.0456 29.5672 45.5045 42.4744M16.1563 42.4744H45.5045" stroke="white" shape-rendering="crispEdges"/>
</g>
<g filter="url(#filter2_d_11_6)">
<path d="M25.3724 14.0765C28.5389 15.0997 35.3002 16.5322 37.0138 14.0765M25.3724 16.9268C28.5389 17.9501 35.3002 19.3825 37.0138 16.9268M25.3724 11.0069C28.5389 12.0301 35.3002 13.4626 37.0138 11.0069" stroke="white"/>
</g>
<defs>
<filter id="filter0_d_11_6" x="98.9615" y="4.64001" width="81.875" height="49.525" filterUnits="userSpaceOnUse" color-interpolation-filters="sRGB">
<feFlood flood-opacity="0" result="BackgroundImageFix"/>
<feColorMatrix in="SourceAlpha" type="matrix" values="0 0 0 0 0 0 0 0 0 0 0 0 0 0 0 0 0 0 127 0" result="hardAlpha"/>
<feOffset dy="4"/>
<feGaussianBlur stdDeviation="2"/>
<feComposite in2="hardAlpha" operator="out"/>
<feColorMatrix type="matrix" values="0 0 0 0 0 0 0 0 0 0 0 0 0 0 0 0 0 0 0.25 0"/>
<feBlend mode="normal" in2="BackgroundImageFix" result="effect1_dropShadow_11_6"/>
<feBlend mode="normal" in="SourceGraphic" in2="effect1_dropShadow_11_6" result="shape"/>
</filter>
<filter id="filter1_d_11_6" x="0.5" y="0.320496" width="91.9448" height="64.1696" filterUnits="userSpaceOnUse" color-interpolation-filters="sRGB">
<feFlood flood-opacity="0" result="BackgroundImageFix"/>
<feColorMatrix in="SourceAlpha" type="matrix" values="0 0 0 0 0 0 0 0 0 0 0 0 0 0 0 0 0 0 127 0" result="hardAlpha"/>
<feOffset dy="4"/>
<feGaussianBlur stdDeviation="2"/>
<feComposite in2="hardAlpha" operator="out"/>
<feColorMatrix type="matrix" values="0 0 0 0 0 0 0 0 0 0 0 0 0 0 0 0 0 0 0.25 0"/>
<feBlend mode="normal" in2="BackgroundImageFix" result="effect1_dropShadow_11_6"/>
<feBlend mode="normal" in="SourceGraphic" in2="effect1_dropShadow_11_6" result="shape"/>
</filter>
<filter id="filter2_d_11_6" x="21.2187" y="10.5311" width="20.2051" height="16.2516" filterUnits="userSpaceOnUse" color-interpolation-filters="sRGB">
<feFlood flood-opacity="0" result="BackgroundImageFix"/>
<feColorMatrix in="SourceAlpha" type="matrix" values="0 0 0 0 0 0 0 0 0 0 0 0 0 0 0 0 0 0 127 0" result="hardAlpha"/>
<feOffset dy="4"/>
<feGaussianBlur stdDeviation="2"/>
<feComposite in2="hardAlpha" operator="out"/>
<feColorMatrix type="matrix" values="0 0 0 0 0 0 0 0 0 0 0 0 0 0 0 0 0 0 0.25 0"/>
<feBlend mode="normal" in2="BackgroundImageFix" result="effect1_dropShadow_11_6"/>
<feBlend mode="normal" in="SourceGraphic" in2="effect1_dropShadow_11_6" result="shape"/>
</filter>
</defs>
</svg>
