<svg width="228" height="65" viewBox="0 0 228 65" fill="none" xmlns="http://www.w3.org/2000/svg">
<g filter="url(#filter0_d_11_6)">
<path d="M106.72 15V6.92H102.512V5.016H113.408V6.92H109.008V15H106.72ZM114.688 5.032H117.024H117.184V5.176C117.12 5.24 117.083 5.30933 117.072 5.384C117.061 5.45867 117.056 5.58667 117.056 5.768V8.872H122.816V5.032H125.152H125.312V5.176C125.248 5.24 125.211 5.30933 125.2 5.384C125.189 5.45867 125.184 5.58667 125.184 5.768V15H122.816V10.712H117.056V15H114.688V5.032ZM127.072 15V5.016H137.04V6.872H129.424V8.872H135.744V10.728H129.424V13.144H136.976V15H127.072ZM106.336 27.664L105.248 28.576V32H102.944V22.032H105.232H105.392V22.176C105.328 22.24 105.285 22.3093 105.264 22.384C105.253 22.4587 105.248 22.5867 105.248 22.768V26.064L110.448 21.936C110.544 21.9573 110.688 21.9733 110.88 21.984C111.083 21.9947 111.291 22.0053 111.504 22.016C111.717 22.016 111.909 22.0213 112.08 22.032C112.261 22.032 112.384 22.032 112.448 22.032H113.424L108.048 26.288L113.744 31.984L110.928 32.08L106.336 27.664ZM123.088 29.808H116.784L117.408 28.128H122.576L123.088 29.808ZM120 25.552L116.8 32H114.256L119.44 21.936H120.576L125.76 32H123.152L120 25.552ZM127.632 32V30.096H130.688V23.92H127.792V22.032H135.92V23.92H132.96V30.112H136.064V32H127.632ZM139.232 22.032H141.648H141.808V22.176C141.744 22.24 141.701 22.3093 141.68 22.384C141.669 22.4587 141.664 22.5867 141.664 22.768V30.128H149.024V32H139.232V22.032ZM159.088 29.808H152.784L153.408 28.128H158.576L159.088 29.808ZM156 25.552L152.8 32H150.256L155.44 21.936H156.576L161.76 32H159.152L156 25.552ZM167.872 32.176C166.891 32.176 165.968 32.0747 165.104 31.872C164.251 31.6693 163.531 31.3653 162.944 30.96L164.112 29.216L164.192 29.088L164.32 29.168C164.341 29.2427 164.373 29.312 164.416 29.376C164.469 29.44 164.571 29.52 164.72 29.616C165.125 29.8293 165.605 29.9947 166.16 30.112C166.715 30.2293 167.333 30.288 168.016 30.288C168.432 30.288 168.805 30.272 169.136 30.24C169.467 30.1973 169.755 30.1387 170 30.064C170.245 29.9893 170.432 29.888 170.56 29.76C170.699 29.632 170.768 29.4827 170.768 29.312C170.768 29.2053 170.736 29.104 170.672 29.008C170.619 28.912 170.523 28.8213 170.384 28.736C170.256 28.64 170.064 28.544 169.808 28.448C169.563 28.3413 169.253 28.2293 168.88 28.112C168.517 27.984 168.069 27.8453 167.536 27.696C166.501 27.3973 165.685 27.0987 165.088 26.8C164.491 26.5013 164.069 26.1653 163.824 25.792C163.579 25.4187 163.456 24.976 163.456 24.464C163.456 23.9307 163.653 23.472 164.048 23.088C164.453 22.6933 165.013 22.3947 165.728 22.192C166.443 21.9787 167.264 21.872 168.192 21.872C168.779 21.872 169.344 21.92 169.888 22.016C170.432 22.112 170.939 22.256 171.408 22.448C171.888 22.6293 172.309 22.864 172.672 23.152L171.456 24.656L171.36 24.768L171.248 24.672C171.237 24.5867 171.205 24.5173 171.152 24.464C171.109 24.4 171.019 24.32 170.88 24.224C170.517 24.032 170.096 23.904 169.616 23.84C169.147 23.776 168.635 23.744 168.08 23.744C167.728 23.744 167.408 23.76 167.12 23.792C166.843 23.824 166.603 23.8773 166.4 23.952C166.208 24.016 166.059 24.096 165.952 24.192C165.845 24.2773 165.792 24.384 165.792 24.512C165.792 24.5973 165.819 24.6827 165.872 24.768C165.925 24.8533 166.021 24.9387 166.16 25.024C166.299 25.1093 166.496 25.2 166.752 25.296C167.008 25.392 167.328 25.504 167.712 25.632C168.107 25.7493 168.592 25.888 169.168 26.048C169.915 26.2827 170.544 26.5173 171.056 26.752C171.568 26.976 171.973 27.216 172.272 27.472C172.571 27.7173 172.784 27.9893 172.912 28.288C173.051 28.576 173.12 28.9013 173.12 29.264C173.12 29.776 172.933 30.256 172.56 30.704C172.187 31.1413 171.611 31.4987 170.832 31.776C170.064 32.0427 169.077 32.176 167.872 32.176ZM174.688 22.032H177.024H177.184V22.176C177.12 22.24 177.083 22.3093 177.072 22.384C177.061 22.4587 177.056 22.5867 177.056 22.768V25.872H182.816V22.032H185.152H185.312V22.176C185.248 22.24 185.211 22.3093 185.2 22.384C185.189 22.4587 185.184 22.5867 185.184 22.768V32H182.816V27.712H177.056V32H174.688V22.032ZM103.472 49V39.016H112.96V40.872H105.68V42.696H111.632V44.552H105.68V49H103.472ZM120.032 49.176C118.869 49.176 117.872 48.9733 117.04 48.568C116.208 48.152 115.568 47.56 115.12 46.792C114.683 46.024 114.464 45.1013 114.464 44.024C114.464 42.9787 114.683 42.0773 115.12 41.32C115.568 40.552 116.208 39.96 117.04 39.544C117.872 39.1173 118.869 38.904 120.032 38.904C121.184 38.904 122.176 39.1173 123.008 39.544C123.84 39.96 124.475 40.552 124.912 41.32C125.36 42.0773 125.584 42.9787 125.584 44.024C125.584 45.1013 125.36 46.024 124.912 46.792C124.475 47.56 123.84 48.152 123.008 48.568C122.176 48.9733 121.184 49.176 120.032 49.176ZM120.032 47.288C120.725 47.288 121.307 47.1707 121.776 46.936C122.256 46.6907 122.619 46.328 122.864 45.848C123.12 45.3573 123.248 44.744 123.248 44.008C123.248 43.3253 123.12 42.744 122.864 42.264C122.619 41.784 122.256 41.4213 121.776 41.176C121.307 40.92 120.725 40.792 120.032 40.792C119.328 40.792 118.736 40.92 118.256 41.176C117.776 41.4213 117.413 41.784 117.168 42.264C116.933 42.744 116.816 43.3253 116.816 44.008C116.816 44.744 116.933 45.3573 117.168 45.848C117.413 46.328 117.776 46.6907 118.256 46.936C118.736 47.1707 119.328 47.288 120.032 47.288ZM132 49.192C130.389 49.192 129.141 48.8453 128.256 48.152C127.381 47.4587 126.944 46.472 126.944 45.192V39.032H129.28H129.44V39.176C129.376 39.24 129.333 39.3093 129.312 39.384C129.301 39.4587 129.296 39.5867 129.296 39.768V45.208C129.296 45.848 129.515 46.3653 129.952 46.76C130.4 47.144 131.093 47.336 132.032 47.336C133.045 47.336 133.76 47.1387 134.176 46.744C134.603 46.3493 134.816 45.8213 134.816 45.16V39.032H137.136V45.144C137.136 46.0827 136.917 46.8507 136.48 47.448C136.043 48.0453 135.44 48.488 134.672 48.776C133.904 49.0533 133.013 49.192 132 49.192ZM138.912 39.032H141.36L146.912 45.48L146.832 39.032H149.024H149.184V39.176C149.12 39.24 149.077 39.3093 149.056 39.384C149.045 39.4587 149.04 39.5867 149.04 39.768V49H146.912L141.136 42.168V49H138.912V39.032ZM150.976 49V39.032H154.832C155.696 39.032 156.427 39.0907 157.024 39.208C157.632 39.3147 158.149 39.4747 158.576 39.688C159.003 39.8907 159.381 40.1413 159.712 40.44C160.043 40.7387 160.331 41.0747 160.576 41.448C160.832 41.8107 161.029 42.2107 161.168 42.648C161.307 43.0853 161.376 43.56 161.376 44.072C161.355 44.84 161.205 45.528 160.928 46.136C160.661 46.744 160.251 47.2613 159.696 47.688C159.141 48.1147 158.437 48.44 157.584 48.664C156.731 48.888 155.717 49 154.544 49H150.976ZM153.328 47.128H154.48C155.6 47.128 156.496 47 157.168 46.744C157.84 46.488 158.32 46.1307 158.608 45.672C158.907 45.2133 159.056 44.6907 159.056 44.104C159.056 43.4747 158.917 42.92 158.64 42.44C158.363 41.96 157.904 41.5867 157.264 41.32C156.635 41.0427 155.792 40.904 154.736 40.904H153.328V47.128ZM171.088 46.808H164.784L165.408 45.128H170.576L171.088 46.808ZM168 42.552L164.8 49H162.256L167.44 38.936H168.576L173.76 49H171.152L168 42.552ZM178.72 49V40.92H174.512V39.016H185.408V40.92H181.008V49H178.72ZM187.632 49V47.096H190.688V40.92H187.792V39.032H195.92V40.92H192.96V47.112H196.064V49H187.632ZM204.032 49.176C202.869 49.176 201.872 48.9733 201.04 48.568C200.208 48.152 199.568 47.56 199.12 46.792C198.683 46.024 198.464 45.1013 198.464 44.024C198.464 42.9787 198.683 42.0773 199.12 41.32C199.568 40.552 200.208 39.96 201.04 39.544C201.872 39.1173 202.869 38.904 204.032 38.904C205.184 38.904 206.176 39.1173 207.008 39.544C207.84 39.96 208.475 40.552 208.912 41.32C209.36 42.0773 209.584 42.9787 209.584 44.024C209.584 45.1013 209.36 46.024 208.912 46.792C208.475 47.56 207.84 48.152 207.008 48.568C206.176 48.9733 205.184 49.176 204.032 49.176ZM204.032 47.288C204.725 47.288 205.307 47.1707 205.776 46.936C206.256 46.6907 206.619 46.328 206.864 45.848C207.12 45.3573 207.248 44.744 207.248 44.008C207.248 43.3253 207.12 42.744 206.864 42.264C206.619 41.784 206.256 41.4213 205.776 41.176C205.307 40.92 204.725 40.792 204.032 40.792C203.328 40.792 202.736 40.92 202.256 41.176C201.776 41.4213 201.413 41.784 201.168 42.264C200.933 42.744 200.816 43.3253 200.816 44.008C200.816 44.744 200.933 45.3573 201.168 45.848C201.413 46.328 201.776 46.6907 202.256 46.936C202.736 47.1707 203.328 47.288 204.032 47.288ZM210.912 39.032H213.36L218.912 45.48L218.832 39.032H221.024H221.184V39.176C221.12 39.24 221.077 39.3093 221.056 39.384C221.045 39.4587 221.04 39.5867 221.04 39.768V49H218.912L213.136 42.168V49H210.912V39.032Z" fill="white"/>
</g>
<g filter="url(#filter1_d_11_6)">
<path d="M5 56.2966C5 46.5058 7.6802 43.1219 9.0203 42.6537H16.1563M76.3602 56.2966C76.3602 56.2966 80.3805 52.7053 86.009 48.3717C91.6374 44.0381 83.6638 42.7541 78.9734 42.6537H45.5045M16.1563 42.6537C15.8883 27.874 18.8298 -1.12365 32.74 1.1234C46.6503 3.37046 47.0456 29.7466 45.5045 42.6537M16.1563 42.6537H45.5045" stroke="white" shape-rendering="crispEdges"/>
</g>
<g filter="url(#filter2_d_11_6)">
<path d="M25.3724 14.2558C28.5389 15.279 35.3002 16.7115 37.0138 14.2558M25.3724 17.1062C28.5389 18.1294 35.3002 19.5619 37.0138 17.1062M25.3724 11.1862C28.5389 12.2094 35.3002 13.6419 37.0138 11.1862" stroke="white"/>
</g>
<defs>
<filter id="filter0_d_11_6" x="98.512" y="5.01599" width="126.672" height="52.176" filterUnits="userSpaceOnUse" color-interpolation-filters="sRGB">
<feFlood flood-opacity="0" result="BackgroundImageFix"/>
<feColorMatrix in="SourceAlpha" type="matrix" values="0 0 0 0 0 0 0 0 0 0 0 0 0 0 0 0 0 0 127 0" result="hardAlpha"/>
<feOffset dy="4"/>
<feGaussianBlur stdDeviation="2"/>
<feComposite in2="hardAlpha" operator="out"/>
<feColorMatrix type="matrix" values="0 0 0 0 0 0 0 0 0 0 0 0 0 0 0 0 0 0 0.25 0"/>
<feBlend mode="normal" in2="BackgroundImageFix" result="effect1_dropShadow_11_6"/>
<feBlend mode="normal" in="SourceGraphic" in2="effect1_dropShadow_11_6" result="shape"/>
</filter>
<filter id="filter1_d_11_6" x="0.5" y="0.499817" width="91.9448" height="64.1696" filterUnits="userSpaceOnUse" color-interpolation-filters="sRGB">
<feFlood flood-opacity="0" result="BackgroundImageFix"/>
<feColorMatrix in="SourceAlpha" type="matrix" values="0 0 0 0 0 0 0 0 0 0 0 0 0 0 0 0 0 0 127 0" result="hardAlpha"/>
<feOffset dy="4"/>
<feGaussianBlur stdDeviation="2"/>
<feComposite in2="hardAlpha" operator="out"/>
<feColorMatrix type="matrix" values="0 0 0 0 0 0 0 0 0 0 0 0 0 0 0 0 0 0 0.25 0"/>
<feBlend mode="normal" in2="BackgroundImageFix" result="effect1_dropShadow_11_6"/>
<feBlend mode="normal" in="SourceGraphic" in2="effect1_dropShadow_11_6" result="shape"/>
</filter>
<filter id="filter2_d_11_6" x="21.2188" y="10.7104" width="20.2051" height="16.2516" filterUnits="userSpaceOnUse" color-interpolation-filters="sRGB">
<feFlood flood-opacity="0" result="BackgroundImageFix"/>
<feColorMatrix in="SourceAlpha" type="matrix" values="0 0 0 0 0 0 0 0 0 0 0 0 0 0 0 0 0 0 127 0" result="hardAlpha"/>
<feOffset dy="4"/>
<feGaussianBlur stdDeviation="2"/>
<feComposite in2="hardAlpha" operator="out"/>
<feColorMatrix type="matrix" values="0 0 0 0 0 0 0 0 0 0 0 0 0 0 0 0 0 0 0.25 0"/>
<feBlend mode="normal" in2="BackgroundImageFix" result="effect1_dropShadow_11_6"/>
<feBlend mode="normal" in="SourceGraphic" in2="effect1_dropShadow_11_6" result="shape"/>
</filter>
</defs>
</svg>
