<svg width="193" height="52" viewBox="0 0 193 52" fill="none" xmlns="http://www.w3.org/2000/svg">
<rect width="193" height="52" fill="white"/>
<path d="M87.12 13V4.585H84.465V3.64H90.945V4.585H88.185V13H87.12ZM92.25 3.655H93.33H93.48V3.76C93.42 3.82 93.38 3.885 93.36 3.955C93.35 4.025 93.345 4.145 93.345 4.315V7.645H97.005V3.655H98.085H98.235V3.76C98.175 3.82 98.135 3.885 98.115 3.955C98.105 4.025 98.1 4.145 98.1 4.315V13H96.99V8.545H93.345V13H92.25V3.655ZM99.885 13V3.64H105.615V4.57H100.875V7.645H104.79V8.605H100.875V12.07H105.57V13H99.885ZM86.49 24.32L85.755 25.13V29H84.63V19.655H85.74H85.89V19.76C85.83 19.82 85.79 19.885 85.77 19.955C85.76 20.025 85.755 20.145 85.755 20.315V23.96L89.655 19.58C89.715 19.59 89.775 19.6 89.835 19.61C89.895 19.62 89.955 19.63 90.015 19.64C90.085 19.64 90.155 19.645 90.225 19.655C90.295 19.655 90.365 19.655 90.435 19.655H90.825L87.285 23.69L91.065 29L89.715 29.06L86.49 24.32ZM96.855 26.27H93.465L93.675 25.46H96.615L96.855 26.27ZM95.235 21.89L92.775 29H91.74L95.19 19.49H95.31L98.76 29H97.68L95.235 21.89ZM100.215 29V28.115H102.06V20.54H100.32V19.655H104.955V20.54H103.11V28.13H105.045V29H100.215ZM107.49 19.655H108.57H108.72V19.76C108.66 19.82 108.62 19.885 108.6 19.955C108.59 20.025 108.585 20.145 108.585 20.315V28.1H113.085V29H107.49V19.655ZM119.355 26.27H115.965L116.175 25.46H119.115L119.355 26.27ZM117.735 21.89L115.275 29H114.24L117.69 19.49H117.81L121.26 29H120.18L117.735 21.89ZM125.205 29.15C124.595 29.15 124.045 29.05 123.555 28.85C123.075 28.65 122.65 28.355 122.28 27.965L122.82 27.02L122.88 26.885L122.985 26.945C123.005 27.015 123.03 27.095 123.06 27.185C123.09 27.265 123.16 27.365 123.27 27.485C123.53 27.705 123.83 27.88 124.17 28.01C124.52 28.14 124.915 28.205 125.355 28.205C125.635 28.205 125.89 28.165 126.12 28.085C126.36 27.995 126.565 27.88 126.735 27.74C126.915 27.59 127.05 27.42 127.14 27.23C127.24 27.03 127.29 26.82 127.29 26.6C127.29 26.43 127.27 26.275 127.23 26.135C127.2 25.995 127.135 25.87 127.035 25.76C126.945 25.64 126.82 25.525 126.66 25.415C126.5 25.295 126.295 25.17 126.045 25.04C125.795 24.91 125.495 24.77 125.145 24.62C124.495 24.37 123.98 24.1 123.6 23.81C123.23 23.51 122.965 23.195 122.805 22.865C122.655 22.535 122.58 22.195 122.58 21.845C122.58 21.385 122.695 20.985 122.925 20.645C123.155 20.295 123.48 20.025 123.9 19.835C124.33 19.635 124.84 19.535 125.43 19.535C125.77 19.535 126.095 19.585 126.405 19.685C126.725 19.775 127.02 19.905 127.29 20.075C127.57 20.245 127.815 20.455 128.025 20.705L127.44 21.485L127.35 21.605L127.26 21.545C127.25 21.465 127.23 21.385 127.2 21.305C127.17 21.225 127.1 21.125 126.99 21.005C126.75 20.775 126.495 20.62 126.225 20.54C125.955 20.45 125.635 20.405 125.265 20.405C125.015 20.405 124.79 20.44 124.59 20.51C124.4 20.58 124.235 20.68 124.095 20.81C123.955 20.94 123.845 21.09 123.765 21.26C123.695 21.42 123.66 21.59 123.66 21.77C123.66 21.94 123.68 22.095 123.72 22.235C123.76 22.375 123.83 22.51 123.93 22.64C124.03 22.77 124.165 22.9 124.335 23.03C124.515 23.16 124.735 23.29 124.995 23.42C125.265 23.55 125.59 23.69 125.97 23.84C126.43 24.03 126.81 24.22 127.11 24.41C127.42 24.59 127.66 24.785 127.83 24.995C128.01 25.195 128.135 25.415 128.205 25.655C128.285 25.895 128.325 26.16 128.325 26.45C128.325 26.88 128.215 27.305 127.995 27.725C127.785 28.135 127.45 28.475 126.99 28.745C126.53 29.015 125.935 29.15 125.205 29.15ZM129.75 19.655H130.83H130.98V19.76C130.92 19.82 130.88 19.885 130.86 19.955C130.85 20.025 130.845 20.145 130.845 20.315V23.645H134.505V19.655H135.585H135.735V19.76C135.675 19.82 135.635 19.885 135.615 19.955C135.605 20.025 135.6 20.145 135.6 20.315V29H134.49V24.545H130.845V29H129.75V19.655ZM85.17 45V35.64H90.555V36.555H86.22V39.495H89.715V40.41H86.22V45H85.17ZM95.25 45.165C94.54 45.165 93.935 44.98 93.435 44.61C92.935 44.24 92.555 43.7 92.295 42.99C92.035 42.27 91.905 41.4 91.905 40.38C91.905 39.39 92.035 38.54 92.295 37.83C92.555 37.11 92.935 36.56 93.435 36.18C93.935 35.79 94.54 35.595 95.25 35.595C95.97 35.595 96.575 35.79 97.065 36.18C97.565 36.56 97.945 37.11 98.205 37.83C98.465 38.54 98.595 39.39 98.595 40.38C98.595 41.4 98.465 42.27 98.205 42.99C97.945 43.7 97.565 44.24 97.065 44.61C96.575 44.98 95.97 45.165 95.25 45.165ZM95.25 44.25C95.73 44.25 96.135 44.1 96.465 43.8C96.805 43.5 97.065 43.065 97.245 42.495C97.425 41.915 97.515 41.21 97.515 40.38C97.515 39.59 97.425 38.91 97.245 38.34C97.065 37.76 96.805 37.31 96.465 36.99C96.135 36.67 95.73 36.51 95.25 36.51C94.78 36.51 94.375 36.67 94.035 36.99C93.695 37.31 93.435 37.76 93.255 38.34C93.075 38.91 92.985 39.59 92.985 40.38C92.985 41.21 93.075 41.915 93.255 42.495C93.435 43.065 93.695 43.5 94.035 43.8C94.375 44.1 94.78 44.25 95.25 44.25ZM102.765 45.165C101.765 45.165 101.01 44.87 100.5 44.28C100 43.68 99.75 42.845 99.75 41.775V35.655H100.77H100.92V35.76C100.86 35.82 100.82 35.885 100.8 35.955C100.79 36.025 100.785 36.145 100.785 36.315V41.79C100.785 42.55 100.93 43.155 101.22 43.605C101.52 44.055 102.04 44.28 102.78 44.28C103.53 44.28 104.055 44.055 104.355 43.605C104.655 43.155 104.805 42.535 104.805 41.745V35.655H105.81V41.73C105.81 42.52 105.685 43.17 105.435 43.68C105.185 44.18 104.83 44.555 104.37 44.805C103.92 45.045 103.385 45.165 102.765 45.165ZM107.25 35.655H108.27L112.2 42.585V35.655H113.19H113.34V35.76C113.28 35.82 113.24 35.885 113.22 35.955C113.21 36.025 113.205 36.145 113.205 36.315V45H112.38L108.255 37.65V45H107.25V35.655ZM114.81 45.015V35.655H116.985C117.525 35.655 117.98 35.705 118.35 35.805C118.72 35.905 119.035 36.05 119.295 36.24C119.555 36.42 119.785 36.65 119.985 36.93C120.195 37.21 120.365 37.525 120.495 37.875C120.635 38.225 120.735 38.61 120.795 39.03C120.865 39.44 120.9 39.89 120.9 40.38C120.87 41.1 120.775 41.745 120.615 42.315C120.455 42.885 120.215 43.37 119.895 43.77C119.575 44.17 119.16 44.48 118.65 44.7C118.15 44.91 117.535 45.015 116.805 45.015H114.81ZM115.8 44.19H116.76C117.48 44.19 118.065 44.045 118.515 43.755C118.975 43.465 119.315 43.04 119.535 42.48C119.755 41.92 119.86 41.24 119.85 40.44C119.85 39.62 119.75 38.92 119.55 38.34C119.35 37.76 119.035 37.315 118.605 37.005C118.185 36.695 117.625 36.54 116.925 36.54H115.8V44.19ZM126.855 42.27H123.465L123.675 41.46H126.615L126.855 42.27ZM125.235 37.89L122.775 45H121.74L125.19 35.49H125.31L128.76 45H127.68L125.235 37.89ZM132.12 45V36.585H129.465V35.64H135.945V36.585H133.185V45H132.12ZM137.715 45V44.115H139.56V36.54H137.82V35.655H142.455V36.54H140.61V44.13H142.545V45H137.715ZM147.75 45.165C147.04 45.165 146.435 44.98 145.935 44.61C145.435 44.24 145.055 43.7 144.795 42.99C144.535 42.27 144.405 41.4 144.405 40.38C144.405 39.39 144.535 38.54 144.795 37.83C145.055 37.11 145.435 36.56 145.935 36.18C146.435 35.79 147.04 35.595 147.75 35.595C148.47 35.595 149.075 35.79 149.565 36.18C150.065 36.56 150.445 37.11 150.705 37.83C150.965 38.54 151.095 39.39 151.095 40.38C151.095 41.4 150.965 42.27 150.705 42.99C150.445 43.7 150.065 44.24 149.565 44.61C149.075 44.98 148.47 45.165 147.75 45.165ZM147.75 44.25C148.23 44.25 148.635 44.1 148.965 43.8C149.305 43.5 149.565 43.065 149.745 42.495C149.925 41.915 150.015 41.21 150.015 40.38C150.015 39.59 149.925 38.91 149.745 38.34C149.565 37.76 149.305 37.31 148.965 36.99C148.635 36.67 148.23 36.51 147.75 36.51C147.28 36.51 146.875 36.67 146.535 36.99C146.195 37.31 145.935 37.76 145.755 38.34C145.575 38.91 145.485 39.59 145.485 40.38C145.485 41.21 145.575 41.915 145.755 42.495C145.935 43.065 146.195 43.5 146.535 43.8C146.875 44.1 147.28 44.25 147.75 44.25ZM152.25 35.655H153.27L157.2 42.585V35.655H158.19H158.34V35.76C158.28 35.82 158.24 35.885 158.22 35.955C158.21 36.025 158.205 36.145 158.205 36.315V45H157.38L153.255 37.65V45H152.25V35.655Z" fill="black"/>
<path d="M17 41C17 34.2718 18.8418 31.9463 19.7628 31.6246H24.6667M66.039 41C66.039 41 68.8018 38.5321 72.6697 35.554C76.5375 32.5759 71.0581 31.6935 67.8348 31.6246H44.8348M24.6667 31.6246C24.4825 21.4679 26.5039 1.54062 36.0631 3.0848C45.6222 4.62899 45.8939 22.7547 44.8348 31.6246M24.6667 31.6246H44.8348" stroke="black"/>
<path d="M31 13.1094C33.176 13.8126 37.8224 14.797 39 13.1094M31 15.0682C33.176 15.7714 37.8224 16.7558 39 15.0682M31 11C33.176 11.7031 37.8224 12.6876 39 11" stroke="black"/>
</svg>
